# xmcd
#
# Track frame offsets:
#	150
#	9220
#	28896
#	43100
#	56007
#	68209
#	84684
#	100033
#	114341
#	128559
#	142051
#	157266
#
# Disc length: 2370 seconds
# Revision: 0
# Processed by: cddbd v1.5.2PL0 Copyright (c) Steve Scherf et al.
# Submitted via: dBpowerAMP V12.0
#
DISCID=a109400c
DTITLE=The Clinton Gregory Bluegrass Band - Roots of My Raising
DYEAR=2013
DGENRE=Country
TTITLE0=How Mountain Girls Can Love
TTITLE1=I Never Go Around Mirrors
TTITLE2=Little Cabin Home On the Hill
TTITLE3=Roots of My Raising
TTITLE4=Dark Hollow
TTITLE5=Katy Kill
TTITLE6=New Patches
TTITLE7=Sittin' On Top of the World
TTITLE8=Looking For a Place To Fall Apart
TTITLE9=Living With the Shades Pulled
TTITLE10=Somehow Tonight
TTITLE11=Crucifixion
EXTD=
EXTT0=
EXTT1=
EXTT2=
EXTT3=
EXTT4=
EXTT5=
EXTT6=
EXTT7=
EXTT8=
EXTT9=
EXTT10=
EXTT11=
PLAYORDER=
